<svg xmlns="http://www.w3.org/2000/svg" width="28.36" height="33.876" viewBox="0 0 28.36 33.876">
    <g data-name="Group 14">
        <path data-name="Path 6" d="M18.225 6.433a8.349 8.349 0 0 0 1.893-2.809 7.762 7.762 0 0 0 .59-2.769c0-.054 0-.123-.01-.2s-.01-.149-.01-.2a1.992 1.992 0 0 1-.051-.224A1.973 1.973 0 0 0 20.583 0a8.112 8.112 0 0 0-5.09 3.013 9.281 9.281 0 0 0-1.588 5.232 11.423 11.423 0 0 0 2.12-.345 5.774 5.774 0 0 0 2.2-1.467z"/>
        <path data-name="Path 7" d="M25.143 22.17a7.75 7.75 0 0 1-1.4-4.54 7.248 7.248 0 0 1 1.319-4.218 13.212 13.212 0 0 1 2.321-2.4 10.535 10.535 0 0 0-2.117-2.036 7.451 7.451 0 0 0-4.336-1.323 11.513 11.513 0 0 0-3.522.693 10.174 10.174 0 0 1-2.911.692 13.115 13.115 0 0 1-2.81-.611 13.544 13.544 0 0 0-3.6-.611 7.027 7.027 0 0 0-5.782 2.932 12.078 12.078 0 0 0-2.3 7.614 20.873 20.873 0 0 0 2.993 10.241q3.033 5.273 6.128 5.272a7.364 7.364 0 0 0 2.687-.692 7.837 7.837 0 0 1 2.891-.672 9.008 9.008 0 0 1 3.074.651 9.4 9.4 0 0 0 2.85.651q2.605 0 5.232-3.99a19.647 19.647 0 0 0 2.5-5.09 6.188 6.188 0 0 1-3.217-2.563z"/>
    </g>
</svg>
