<svg xmlns="http://www.w3.org/2000/svg" width="27.291" height="30.248" viewBox="0 0 27.291 30.248">
    <path d="M25.617 12.237 4.975.438a3.325 3.325 0 0 0-4.97 2.887v23.6a3.325 3.325 0 0 0 4.97 2.885l20.641-11.8a3.325 3.325 0 0 0 0-5.774zm-8.945-2.79-2.834 3.948-6.779-9.443zM3.195 28.22a1.3 1.3 0 0 1-.527-.165 1.313 1.313 0 0 1-.652-1.132V3.325a1.3 1.3 0 0 1 1.176-1.3l9.4 13.1zm3.864-1.92 6.779-9.443 2.834 3.943zm17.557-10.04-6.184 3.535-3.353-4.671 3.353-4.671 6.184 3.535a1.308 1.308 0 0 1 0 2.272z"/>
</svg>
