<svg xmlns="http://www.w3.org/2000/svg" width="24.6" height="24.6" viewBox="0 0 24.6 24.6">
    <g data-name="shopping-cart">
        <path data-name="Path 914" d="M7.38 19.68a2.46 2.46 0 1 0 2.46 2.46 2.467 2.467 0 0 0-2.46-2.46zM0 0v2.46h2.46l4.428 9.348-1.722 2.952a4.37 4.37 0 0 0-.246 1.23 2.467 2.467 0 0 0 2.46 2.46h14.76v-2.46H7.872a.265.265 0 0 1-.246-.246v-.123l1.107-2.091h9.1a2.243 2.243 0 0 0 2.091-1.23l4.428-7.995a.677.677 0 0 0 .248-.615 1.162 1.162 0 0 0-1.23-1.23H5.166L4.059 0zm19.68 19.68a2.46 2.46 0 1 0 2.46 2.46 2.467 2.467 0 0 0-2.46-2.46z" style="fill:#fff"/>
    </g>
</svg>
