<svg xmlns="http://www.w3.org/2000/svg" width="25" height="23.908" viewBox="0 0 25 23.908">
    <path d="m13.708 1.8 2.82 5.713a1.346 1.346 0 0 0 1.014.736l6.305.916a1.346 1.346 0 0 1 .746 2.3l-4.563 4.442a1.346 1.346 0 0 0-.387 1.192l1.077 6.28a1.347 1.347 0 0 1-1.953 1.421l-5.639-2.965a1.348 1.348 0 0 0-1.253 0L6.235 24.8a1.346 1.346 0 0 1-1.953-1.419L5.358 17.1a1.346 1.346 0 0 0-.387-1.192L.409 11.459a1.346 1.346 0 0 1 .746-2.3l6.305-.912a1.346 1.346 0 0 0 1.014-.736l2.82-5.711a1.346 1.346 0 0 1 2.414 0z" transform="translate(-.001 -1.047)" style="fill:#ed8a19"/>
</svg>
