<svg xmlns="http://www.w3.org/2000/svg" width="41.699" height="41.699" viewBox="0 0 41.699 41.699">
    <defs>
        <style>
            .cls-1{fill:none;stroke:#707070;stroke-width:1.5px}
        </style>
    </defs>
    <g id="twitter" transform="translate(.75 .75)">
        <path id="Path_20" data-name="Path 20" class="cls-1" d="M20.1 0A20.1 20.1 0 1 1 0 20.1 20.1 20.1 0 0 1 20.1 0z"/>
        <path id="Path_21" data-name="Path 21" class="cls-1" d="M87.583 84.215a10.01 10.01 0 0 1-2.814.75 4.793 4.793 0 0 0 2.154-2.632 9.931 9.931 0 0 1-3.112 1.154 4.962 4.962 0 0 0-3.575-1.5 4.826 4.826 0 0 0-4.9 4.752 4.614 4.614 0 0 0 .127 1.084 14.05 14.05 0 0 1-10.1-4.967 4.617 4.617 0 0 0-.663 2.389 4.714 4.714 0 0 0 2.186 3.955 4.98 4.98 0 0 1-2.22-.6v.06a4.8 4.8 0 0 0 3.934 4.669 5.065 5.065 0 0 1-1.29.167 4.939 4.939 0 0 1-.921-.085 4.885 4.885 0 0 0 4.576 3.3 10.014 10.014 0 0 1-6.084 2.035 10.3 10.3 0 0 1-1.17-.067 14.175 14.175 0 0 0 7.51 2.137 13.63 13.63 0 0 0 13.933-13.525l-.014-.616a9.775 9.775 0 0 0 2.443-2.46z" transform="translate(-54.917 -70.674)"/>
    </g>
</svg>
