<svg id="like0" xmlns="http://www.w3.org/2000/svg" width="22.171" height="19.4" viewBox="0 0 22.171 19.4">
    <defs>
        <style>
            .cls-1{fill:#575757}
        </style>
    </defs>
    <path id="Path_918" data-name="Path 918" class="cls-1" d="M5.543 12.471V1.386A1.386 1.386 0 0 0 4.157 0H0v13.857h4.157a1.386 1.386 0 0 0 1.386-1.386z" transform="translate(16.628)"/>
    <path id="Path_919" data-name="Path 919" class="cls-1" d="M2.559 12.5h4.093a.693.693 0 0 1 .606 1.029l-1.443 2.6a2.078 2.078 0 0 0 1.313 3.025l1.018.254a.691.691 0 0 0 .683-.208l5.525-6.138a3.462 3.462 0 0 0 .888-2.317V3.494A3.468 3.468 0 0 0 11.778.03H4.886a3.472 3.472 0 0 0-3.341 2.549L.066 9.366A2.559 2.559 0 0 0 2.559 12.5z" transform="translate(0 -.03)"/>
</svg>
