<svg xmlns="http://www.w3.org/2000/svg" width="19" height="18.17" viewBox="0 0 19 18.17">
    <path d="m10.418 1.617 2.143 4.342a1.023 1.023 0 0 0 .77.56l4.792.7a1.023 1.023 0 0 1 .567 1.745l-3.467 3.38a1.023 1.023 0 0 0-.294.906l.818 4.773a1.023 1.023 0 0 1-1.484 1.077l-4.286-2.256a1.024 1.024 0 0 0-.952 0L4.738 19.1a1.023 1.023 0 0 1-1.485-1.079l.818-4.773a1.023 1.023 0 0 0-.294-.906L.311 8.96a1.023 1.023 0 0 1 .567-1.745l4.792-.7a1.023 1.023 0 0 0 .77-.56l2.143-4.338a1.023 1.023 0 0 1 1.835 0z" transform="translate(-.001 -1.047)" style="fill:#f3ae0c"/>
</svg>
