<svg xmlns="http://www.w3.org/2000/svg" width="41.1" height="41.1" viewBox="0 0 41.1 41.1">
    <defs>
        <style>
            .cls-1{fill:none;stroke:#707070;stroke-width:1.5px}
        </style>
    </defs>
    <g id="facebook" transform="translate(.75 .75)">
        <path id="Path_8" data-name="Path 8" class="cls-1" d="M291.352 508.668q-.247.04-.5.074.248-.034.5-.074zm0 0" transform="translate(-268.359 -469.326)"/>
        <path id="Path_9" data-name="Path 9" class="cls-1" d="m299.576 507.793-.237.041zm0 0" transform="translate(-276.187 -468.518)"/>
        <path id="Path_10" data-name="Path 10" class="cls-1" d="M278.192 510.34q-.29.033-.582.057.29-.024.582-.057zm0 0" transform="translate(-256.138 -470.868)"/>
        <path id="Path_11" data-name="Path 11" class="cls-1" d="m286.725 509.738-.279.035zm0 0" transform="translate(-264.291 -470.313)"/>
        <path id="Path_12" data-name="Path 12" class="cls-1" d="m306.873 506.41-.209.044zm0 0" transform="translate(-282.945 -467.242)"/>
        <path id="Path_13" data-name="Path 13" class="cls-1" d="m324.653 502.113-.169.047zm0 0" transform="translate(-299.387 -463.278)"/>
        <path id="Path_14" data-name="Path 14" class="cls-1" d="m319.243 503.543-.184.048zm0 0" transform="translate(-294.382 -464.597)"/>
        <path id="Path_15" data-name="Path 15" class="cls-1" d="m312.262 505.254-.2.044zm0 0" transform="translate(-287.93 -466.176)"/>
        <path id="Path_16" data-name="Path 16" class="cls-1" d="m273.793 511.09-.313.024zm0 0" transform="translate(-252.328 -471.56)"/>
        <path id="Path_17" data-name="Path 17" class="cls-1" d="M39.6 19.8a19.8 19.8 0 1 0-19.8 19.8h.348V24.182h-4.254v-4.957h4.254v-3.649c0-4.231 2.583-6.534 6.357-6.534a35.017 35.017 0 0 1 3.814.195v4.422h-2.6c-2.053 0-2.451.976-2.451 2.408v3.158h4.91l-.64 4.958h-4.27v14.652A19.811 19.811 0 0 0 39.6 19.8zm0 0"/>
        <path id="Path_18" data-name="Path 18" class="cls-1" d="M265.511 511.43q-.309.02-.621.031.31-.011.621-.031zm0 0" transform="translate(-244.403 -471.874)"/>
        <path id="Path_19" data-name="Path 19" class="cls-1" d="m260.833 511.836-.329.008zm0 0" transform="translate(-240.356 -472.249)"/>
    </g>
</svg>
